<?xml version="1.0" encoding="UTF-8" standalone="no"?>
<!-- Created with Inkscape (http://www.inkscape.org/) -->

<svg
   xmlns:dc="http://purl.org/dc/elements/1.1/"
   xmlns:cc="http://creativecommons.org/ns#"
   xmlns:rdf="http://www.w3.org/1999/02/22-rdf-syntax-ns#"
   xmlns:svg="http://www.w3.org/2000/svg"
   xmlns="http://www.w3.org/2000/svg"
   xmlns:sodipodi="http://sodipodi.sourceforge.net/DTD/sodipodi-0.dtd"
   xmlns:inkscape="http://www.inkscape.org/namespaces/inkscape"
   width="3.3681304in"
   height="3.458596in"
   viewBox="0 0 85.550513 87.848338"
   version="1.1"
   id="svg6297"
   inkscape:version="0.92.3 (2405546, 2018-03-11)"
   sodipodi:docname="Logo.svg">
  <defs
     id="defs6291">
    <inkscape:perspective
       sodipodi:type="inkscape:persp3d"
       inkscape:vp_x="0 : 139.7 : 1"
       inkscape:vp_y="0 : 1000 : 0"
       inkscape:vp_z="215.9 : 139.7 : 1"
       inkscape:persp3d-origin="107.95 : 93.133335 : 1"
       id="perspective6299" />
  </defs>
  <sodipodi:namedview
     id="base"
     pagecolor="#ffffff"
     bordercolor="#666666"
     borderopacity="1.0"
     inkscape:pageopacity="0.0"
     inkscape:pageshadow="2"
     inkscape:zoom="0.70710678"
     inkscape:cx="110.11921"
     inkscape:cy="70.25298"
     inkscape:document-units="mm"
     inkscape:current-layer="layer1"
     showgrid="false"
     units="in"
     showguides="true"
     inkscape:guide-bbox="true"
     inkscape:window-width="1366"
     inkscape:window-height="705"
     inkscape:window-x="-8"
     inkscape:window-y="-8"
     inkscape:window-maximized="1" />
  <metadata
     id="metadata6294">
    <rdf:RDF>
      <cc:Work
         rdf:about="">
        <dc:format>image/svg+xml</dc:format>
        <dc:type
           rdf:resource="http://purl.org/dc/dcmitype/StillImage" />
        <dc:title></dc:title>
      </cc:Work>
    </rdf:RDF>
  </metadata>
  <g
     inkscape:label="Capa 1"
     inkscape:groupmode="layer"
     id="layer1"
     transform="translate(-58.119335,-92.868061)">
    <path
       id="path6999"
       d="m 100.91889,93.86841 a 1.0001,1.0001 0 0 0 -0.52504,0.13281 l -34.615464,19.98637 a 1.0001,1.0001 0 0 0 -0.500226,0.86558 v 30.04106 c 0,19.23209 15.968938,34.82218 35.6154,34.82217 19.64644,0 35.61746,-15.59008 35.61747,-34.82217 v -30.04106 a 1.0001,1.0001 0 0 0 -0.50023,-0.86558 L 101.39379,94.00122 a 1.0001,1.0001 0 0 0 -0.4749,-0.13281 z"
       style="color:#000000;font-style:normal;font-variant:normal;font-weight:normal;font-stretch:normal;font-size:medium;line-height:normal;font-family:sans-serif;font-variant-ligatures:normal;font-variant-position:normal;font-variant-caps:normal;font-variant-numeric:normal;font-variant-alternates:normal;font-feature-settings:normal;text-indent:0;text-align:start;text-decoration:none;text-decoration-line:none;text-decoration-style:solid;text-decoration-color:#000000;letter-spacing:normal;word-spacing:normal;text-transform:none;writing-mode:lr-tb;direction:ltr;text-orientation:mixed;dominant-baseline:auto;baseline-shift:baseline;text-anchor:start;white-space:normal;shape-padding:0;clip-rule:nonzero;display:inline;overflow:visible;visibility:visible;opacity:0.95099996;isolation:auto;mix-blend-mode:normal;color-interpolation:sRGB;color-interpolation-filters:linearRGB;solid-color:#000000;solid-opacity:1;vector-effect:none;fill:#ffffff;fill-opacity:1;fill-rule:nonzero;stroke:#000000;stroke-width:2;stroke-linecap:butt;stroke-linejoin:round;stroke-miterlimit:4;stroke-dasharray:none;stroke-dashoffset:0;stroke-opacity:1;color-rendering:auto;image-rendering:auto;shape-rendering:auto;text-rendering:auto;enable-background:accumulate"
       inkscape:connector-curvature="0" />
    <path
       style="color:#000000;font-style:normal;font-variant:normal;font-weight:normal;font-stretch:normal;font-size:medium;line-height:normal;font-family:sans-serif;font-variant-ligatures:normal;font-variant-position:normal;font-variant-caps:normal;font-variant-numeric:normal;font-variant-alternates:normal;font-feature-settings:normal;text-indent:0;text-align:start;text-decoration:none;text-decoration-line:none;text-decoration-style:solid;text-decoration-color:#000000;letter-spacing:normal;word-spacing:normal;text-transform:none;writing-mode:lr-tb;direction:ltr;text-orientation:mixed;dominant-baseline:auto;baseline-shift:baseline;text-anchor:start;white-space:normal;shape-padding:0;clip-rule:nonzero;display:inline;overflow:visible;visibility:visible;opacity:1;isolation:auto;mix-blend-mode:normal;color-interpolation:sRGB;color-interpolation-filters:linearRGB;solid-color:#000000;solid-opacity:1;vector-effect:none;fill:#000000;fill-opacity:1;fill-rule:nonzero;stroke:none;stroke-width:3;stroke-linecap:butt;stroke-linejoin:round;stroke-miterlimit:4;stroke-dasharray:none;stroke-dashoffset:0;stroke-opacity:1;color-rendering:auto;image-rendering:auto;shape-rendering:auto;text-rendering:auto;enable-background:accumulate"
       d="m 59.638124,130.95589 a 1.4060327,1.6409152 42.789404 0 0 -1.518789,1.75365 v 25.45157 a 1.4060327,1.6409152 42.789404 0 0 1.518789,1.28393 L 142.15106,146.6856 a 1.4060327,1.6409152 42.789404 0 0 1.51879,-1.75365 v -25.45157 a 1.4060327,1.6409152 42.789404 0 0 -1.51879,-1.28393 z"
       id="path7099"
       inkscape:connector-curvature="0" />
    <path
       style="color:#000000;font-style:normal;font-variant:normal;font-weight:normal;font-stretch:normal;font-size:medium;line-height:normal;font-family:sans-serif;font-variant-ligatures:normal;font-variant-position:normal;font-variant-caps:normal;font-variant-numeric:normal;font-variant-alternates:normal;font-feature-settings:normal;text-indent:0;text-align:start;text-decoration:none;text-decoration-line:none;text-decoration-style:solid;text-decoration-color:#000000;letter-spacing:normal;word-spacing:normal;text-transform:none;writing-mode:lr-tb;direction:ltr;text-orientation:mixed;dominant-baseline:auto;baseline-shift:baseline;text-anchor:start;white-space:normal;shape-padding:0;clip-rule:nonzero;display:inline;overflow:visible;visibility:visible;opacity:0.76200005;isolation:auto;mix-blend-mode:normal;color-interpolation:sRGB;color-interpolation-filters:linearRGB;solid-color:#000000;solid-opacity:1;vector-effect:none;fill:#008000;fill-opacity:1;fill-rule:nonzero;stroke:none;stroke-width:3;stroke-linecap:butt;stroke-linejoin:round;stroke-miterlimit:4;stroke-dasharray:none;stroke-dashoffset:0;stroke-opacity:1;color-rendering:auto;image-rendering:auto;shape-rendering:auto;text-rendering:auto;enable-background:accumulate"
       d="m 61.156913,133.75862 79.475367,-12.28973 v 22.414 l -79.475367,12.28973 z"
       id="rect7093"
       inkscape:connector-curvature="0" />
    <rect
       style="opacity:1;fill:#ffffff;fill-opacity:1;stroke:none;stroke-width:2.61540508;stroke-linejoin:round;stroke-miterlimit:4;stroke-dasharray:none;stroke-dashoffset:0;stroke-opacity:1"
       id="rect7091"
       width="83.493118"
       height="25.450256"
       x="60.347214"
       y="141.6972"
       transform="matrix(0.98825413,-0.1528194,0,1,0,0)" />
    <path
       style="font-style:normal;font-variant:normal;font-weight:normal;font-stretch:normal;font-size:21.27816391px;line-height:1.25;font-family:'Matura MT Script Capitals';-inkscape-font-specification:'Matura MT Script Capitals';letter-spacing:0px;word-spacing:0px;fill:#000000;fill-opacity:1;stroke:none;stroke-width:0.26458332"
       d="m 101.66768,128.76514 c -0.0702,0.0249 -0.14711,0.0581 -0.23127,0.0991 -1.01692,0.4448 -2.349421,1.45035 -3.997531,3.01668 -1.64812,1.56633 -3.17359,3.63959 -4.57623,6.21995 l 2.31427,-8.2059 c -0.43483,0.15834 -0.99595,0.41745 -1.68325,0.77621 -0.68028,0.35065 -1.59181,0.85235 -2.73496,1.50602 -1.14316,0.65366 -2.46876,1.43412 -3.97661,2.34055 l -0.69433,2.44258 4.5867,-2.22403 c -0.84159,1.75721 -1.89034,4.5666 -3.14571,8.42865 -0.36469,1.14345 -0.65535,2.07576 -0.87275,2.79666 -0.21041,0.71985 -0.41373,1.44911 -0.6101,2.18783 -0.18935,0.74462 -0.32659,1.31662 -0.41074,1.71536 -0.0841,0.40574 -0.15079,0.83308 -0.19988,1.2825 l 4.86035,-2.62425 c 1.14318,-3.999 3.81161,-9.31374 8.00553,-15.94457 1.21329,1.6779 1.820341,3.9544 1.820341,6.82983 0,0.035 -0.007,0.34166 -0.0215,0.91899 -1.325501,-0.11764 -2.636771,-0.1957 -3.934221,-0.23352 l -2.09348,3.50083 c 0.12624,0.0296 0.30144,0.0691 0.52586,0.11855 0.32261,0.0623 0.51903,0.10895 0.58916,0.14017 0.0841,0.0361 0.29094,0.18672 0.62056,0.45135 0.68029,0.55404 1.41316,0.77039 2.19864,0.64893 l 0.43168,-0.0883 c 2.566841,-2.73935 4.169291,-4.88768 4.807501,-6.44513 0.6382,-1.55044 0.957,-3.33197 0.957,-5.34477 0,-1.33251 -0.37507,-2.59614 -1.12548,-3.79158 -0.56807,-0.28386 -1.03791,-0.457 -1.4096,-0.51874 z m 24.5325,-3.6994 v 5.3e-4 c -2.0689,0.31993 -4.29222,1.03879 -6.6697,2.15687 -0.14028,0.28818 -0.31546,0.63804 -0.52586,1.04929 -0.11222,0.19269 -0.20352,0.37509 -0.27365,0.54725 1.08705,-0.36447 2.13183,-0.68397 3.13471,-0.95827 1.00992,-0.2754 1.92885,-0.48757 2.75642,-0.63658 -1.24135,2.34502 -2.06899,3.85143 -2.48276,4.51854 l -2.11441,3.38791 c -0.59612,0.008 -1.18539,0.0256 -1.76749,0.0525 -0.57508,0.0258 -1.09376,0.0606 -1.55663,0.10414 -0.45586,0.0425 -0.93657,0.10193 -1.44152,0.18001 -2.118,0.32752 -3.94501,0.99943 -5.48091,2.01541 -1.54291,1.0311 -2.78066,2.13798 -3.71341,3.32017 -0.9468,1.1984 -1.42007,2.22556 -1.42007,3.08119 0,0.75743 0.45204,1.41298 1.35675,1.96739 0.8977,0.5625 2.0481,0.73552 3.45075,0.51862 1.44473,-0.22341 2.99091,-0.94322 4.63903,-2.15888 1.63408,-1.2065 3.78387,-3.48485 6.44889,-6.83551 0.71535,-0.15272 1.48327,-0.31397 2.30382,-0.48287 0.82756,-0.17708 1.49381,-0.3151 1.99876,-0.41426 0.4699,-0.0727 1.36069,-0.16802 2.67218,-0.28659 0.22442,3.47893 0.33644,5.61432 0.33644,6.40682 0.93276,-0.58608 2.51449,-1.37695 4.74471,-2.37406 -0.30859,-1.05336 -0.60322,-2.55848 -0.88374,-4.51387 l -0.70481,-4.78277 -0.24226,-1.85614 c -0.1122,-0.90138 -0.26962,-1.65875 -0.473,-2.27253 -0.19637,-0.61484 -0.4703,-1.05664 -0.82096,-1.32503 -0.35768,-0.28133 -0.82007,-0.44473 -1.38815,-0.49014 -0.59612,-0.0481 -1.22388,-0.0211 -1.88313,0.0809 z m -48.770421,7.54218 c -1.19926,0.99197 -2.1705,2.28911 -2.91391,3.89089 -0.75041,1.6309 -1.12548,3.20003 -1.12548,4.70788 0,0.45586 0.0839,0.92307 0.2522,1.402 -1.39564,0.98025 -2.48234,2.0144 -3.26081,3.10263 -0.7925,1.1044 -1.1888,2.20009 -1.1888,3.28715 0,1.44472 0.74668,2.45499 2.2405,3.03051 1.48682,0.58363 3.44362,0.68821 5.8702,0.31297 2.44763,-0.37849 4.41135,-1.12436 5.89113,-2.23686 0.16132,-0.35456 0.34341,-0.78937 0.54678,-1.30474 0.21042,-0.51645 0.39646,-1.0047 0.55777,-1.46445 0.16833,-0.45384 0.37856,-1.05783 0.63103,-1.81223 -1.45174,1.1783 -2.52465,1.94727 -3.21896,2.30711 -0.73639,0.38039 -1.49739,0.6313 -2.28288,0.75277 -4.48146,0.69299 -6.72203,0.0401 -6.72203,-1.95868 0,-0.89067 0.44515,-1.97614 1.33582,-3.25704 0.49796,0.32276 1.16074,0.56028 1.98831,0.71285 0.84158,0.15741 1.49748,0.19958 1.96737,0.12692 0.0772,-0.0119 0.28392,-0.114 0.62056,-0.3063 0.14027,-0.28118 0.28386,-0.55608 0.43115,-0.82432 0.46286,-0.84303 0.75061,-1.42053 0.86281,-1.73243 -1.31147,0.1187 -2.33207,-0.16178 -3.06146,-0.84148 -0.72938,-0.67971 -1.09356,-1.60499 -1.09356,-2.77621 0,-0.69431 0.14016,-1.32994 0.42068,-1.90632 2.1671,-0.22991 4.42146,0.65974 6.76389,2.668 l 0.24225,-1.45805 c 0.12624,-0.68578 0.18942,-1.11256 0.18942,-1.28087 0,-1.02394 -0.55769,-1.85319 -1.67279,-2.48728 -0.54002,-0.31625 -1.17123,-0.52708 -1.8936,-0.63279 -0.71535,-0.1138 -1.50794,-0.12105 -2.37759,-0.0216 z"
       id="path7109"
       inkscape:connector-curvature="0" />
    <g
       aria-label="DESARROLLO WEB"
       style="font-style:normal;font-variant:normal;font-weight:bold;font-stretch:normal;font-size:5.67321444px;line-height:1.25;font-family:'Levenim MT';-inkscape-font-specification:'Levenim MT Bold';letter-spacing:1.20914578px;word-spacing:0px;fill:#000000;fill-opacity:1;stroke:none;stroke-width:0.26458332"
       id="text7118">
      <path
         d="m 78.78363,164.52992 q -0.744393,0.61252 -1.547489,0.51282 -0.454688,-0.0599 -0.821355,-0.35731 -0.213134,-0.17618 -0.621481,-0.67245 l -0.593158,-0.72086 3.146558,-2.58913 0.584359,0.71017 q 0.485792,0.59038 0.624362,1.00729 0.181033,0.54698 -0.05544,1.1577 -0.205121,0.5311 -0.716356,0.95177 z m -0.483139,-0.61767 q 1.02461,-0.8431 0.126951,-1.93402 l -0.167211,-0.20321 -1.98291,1.63163 0.228815,0.27807 q 0.286899,0.34867 0.49364,0.46913 0.286974,0.16565 0.656309,0.0913 0.319268,-0.0654 0.644406,-0.33294 z"
         style="font-style:normal;font-variant:normal;font-weight:bold;font-stretch:normal;font-family:'Levenim MT';-inkscape-font-specification:'Levenim MT Bold';letter-spacing:1.20914578px;fill:#000000;stroke-width:0.26458332"
         id="path7129"
         inkscape:connector-curvature="0" />
      <path
         d="m 80.282775,168.67112 -1.644151,-1.49825 2.744624,-3.01189 1.644151,1.49826 -0.511236,0.56101 -1.074942,-0.97955 -0.496309,0.54463 1.074943,0.97956 -0.501906,0.55078 -1.074943,-0.97956 -0.722073,0.79239 1.074943,0.97956 z"
         style="font-style:normal;font-variant:normal;font-weight:bold;font-stretch:normal;font-family:'Levenim MT';-inkscape-font-specification:'Levenim MT Bold';letter-spacing:1.20914578px;fill:#000000;stroke-width:0.26458332"
         id="path7131"
         inkscape:connector-curvature="0" />
      <path
         d="m 84.211847,170.26987 q -0.301657,0.4313 -0.785466,0.48505 -0.462251,0.0519 -0.900361,-0.2545 -0.71051,-0.49694 -0.567243,-1.47509 l 0.758898,0.0508 q -0.06897,0.61094 0.244285,0.83004 0.14528,0.10161 0.317523,0.097 0.190627,-0.002 0.289063,-0.14263 0.103198,-0.14755 0.05906,-0.44209 -0.01661,-0.11642 -0.111376,-0.44975 -0.175895,-0.62333 -0.205957,-0.89451 -0.06444,-0.55551 0.161007,-0.87785 0.257202,-0.36774 0.706293,-0.41535 0.429119,-0.048 0.801399,0.21233 0.50167,0.35087 0.588472,1.21274 l -0.760433,0.0868 q -0.0061,-0.5181 -0.262614,-0.69751 -0.10442,-0.073 -0.226514,-0.0773 -0.139795,-0.003 -0.209652,0.0968 -0.05874,0.084 -0.05439,0.19859 0.0064,0.15999 0.16528,0.7545 0.1525,0.56978 0.172064,0.69164 0.101681,0.6086 -0.179337,1.01039 z"
         style="font-style:normal;font-variant:normal;font-weight:bold;font-stretch:normal;font-family:'Levenim MT';-inkscape-font-specification:'Levenim MT Bold';letter-spacing:1.20914578px;fill:#000000;stroke-width:0.26458332"
         id="path7133"
         inkscape:connector-curvature="0" />
      <path
         d="m 88.488459,173.76122 -0.721476,-0.35955 0.08926,-0.89332 -1.48758,-0.74135 -0.671897,0.60296 -0.721477,-0.35956 3.223303,-2.94647 0.704121,0.3509 z m -0.555227,-2.05946 0.140504,-1.49298 -1.109911,1.00987 z"
         style="font-style:normal;font-variant:normal;font-weight:bold;font-stretch:normal;font-family:'Levenim MT';-inkscape-font-specification:'Levenim MT Bold';letter-spacing:1.20914578px;fill:#000000;stroke-width:0.26458332"
         id="path7135"
         inkscape:connector-curvature="0" />
      <path
         d="m 92.732848,175.20193 -0.807346,-0.2583 -0.34743,-1.92311 -0.0686,-0.022 -0.525875,1.64372 -0.738748,-0.23635 1.241674,-3.88107 0.783601,0.2507 q 0.517123,0.16545 0.738752,0.30906 0.3602,0.22867 0.458687,0.62083 0.08096,0.31965 -0.03552,0.68375 -0.24479,0.76513 -1.06531,0.79347 z m -0.01328,-3.04939 q 0.08526,-0.26647 -0.128777,-0.43384 -0.09815,-0.075 -0.39365,-0.16956 l -0.203156,-0.065 -0.254075,0.79415 0.232178,0.0743 q 0.292861,0.0937 0.440712,0.077 0.226579,-0.0264 0.306768,-0.27705 z"
         style="font-style:normal;font-variant:normal;font-weight:bold;font-stretch:normal;font-family:'Levenim MT';-inkscape-font-specification:'Levenim MT Bold';letter-spacing:1.20914578px;fill:#000000;stroke-width:0.26458332"
         id="path7137"
         inkscape:connector-curvature="0" />
      <path
         d="m 97.148864,176.07354 -0.835248,-0.14452 -0.609253,-1.85685 -0.07097,-0.0123 -0.294233,1.70052 -0.764279,-0.13224 0.694731,-4.01519 0.810681,0.14027 q 0.534995,0.0926 0.774309,0.20426 0.388286,0.17682 0.539899,0.55165 0.124262,0.30544 0.05909,0.68212 -0.136963,0.79158 -0.94574,0.93277 z m -0.433571,-3.01844 q 0.0477,-0.27568 -0.187362,-0.41194 -0.107557,-0.0608 -0.413269,-0.11367 l -0.210176,-0.0364 -0.142158,0.8216 0.240202,0.0416 q 0.302982,0.0524 0.447121,0.0155 0.220775,-0.0574 0.265642,-0.3167 z"
         style="font-style:normal;font-variant:normal;font-weight:bold;font-stretch:normal;font-family:'Levenim MT';-inkscape-font-specification:'Levenim MT Bold';letter-spacing:1.20914578px;fill:#000000;stroke-width:0.26458332"
         id="path7139"
         inkscape:connector-curvature="0" />
      <path
         d="m 103.03212,174.29088 q -0.009,0.88917 -0.62174,1.50357 -0.61281,0.61163 -1.50198,0.60273 -0.90024,-0.009 -1.50897,-0.63564 -0.608725,-0.62664 -0.599712,-1.52688 0.0058,-0.5817 0.2905,-1.06918 0.284676,-0.48749 0.788955,-0.77332 0.495917,-0.28037 1.066527,-0.27466 0.8864,0.009 1.49499,0.64936 0.60033,0.63486 0.59143,1.52402 z m -0.77554,-0.0133 q 0.006,-0.57616 -0.3697,-0.98161 -0.3837,-0.41384 -0.95708,-0.41958 -0.58724,-0.006 -0.968035,0.39754 -0.375144,0.39239 -0.38105,0.9824 -0.0068,0.67588 0.474045,1.07407 0.37364,0.31124 0.86116,0.31612 0.56784,0.006 0.95697,-0.40042 0.37795,-0.39514 0.38369,-0.96852 z"
         style="font-style:normal;font-variant:normal;font-weight:bold;font-stretch:normal;font-family:'Levenim MT';-inkscape-font-specification:'Levenim MT Bold';letter-spacing:1.20914578px;fill:#000000;stroke-width:0.26458332"
         id="path7141"
         inkscape:connector-curvature="0" />
      <path
         d="m 106.83257,175.82427 -1.88719,0.26599 -0.56871,-4.03497 0.76805,-0.10825 0.46548,3.30259 1.11914,-0.15774 z"
         style="font-style:normal;font-variant:normal;font-weight:bold;font-stretch:normal;font-family:'Levenim MT';-inkscape-font-specification:'Levenim MT Bold';letter-spacing:1.20914578px;fill:#000000;stroke-width:0.26458332"
         id="path7143"
         inkscape:connector-curvature="0" />
      <path
         d="m 110.43517,174.96968 -1.84389,0.482 -1.03057,-3.94238 0.75042,-0.19616 0.84351,3.2268 1.09347,-0.28584 z"
         style="font-style:normal;font-variant:normal;font-weight:bold;font-stretch:normal;font-family:'Levenim MT';-inkscape-font-specification:'Levenim MT Bold';letter-spacing:1.20914578px;fill:#000000;stroke-width:0.26458332"
         id="path7145"
         inkscape:connector-curvature="0" />
      <path
         d="m 115.05826,170.98308 q 0.3523,0.81644 0.0411,1.62653 -0.31227,0.80754 -1.12871,1.15984 -0.82662,0.35669 -1.6371,0.0306 -0.81049,-0.32608 -1.16718,-1.15269 -0.23048,-0.53412 -0.16785,-1.09516 0.0626,-0.56104 0.40774,-1.02675 0.33969,-0.45733 0.86364,-0.68342 0.8139,-0.3512 1.62987,-0.0124 0.80615,0.337 1.15845,1.15344 z m -0.71436,0.30222 q -0.22828,-0.52904 -0.73587,-0.74747 -0.51851,-0.22278 -1.045,0.004 -0.53921,0.23267 -0.72378,0.75582 -0.18388,0.51077 0.0499,1.05252 0.2678,0.6206 0.86875,0.7897 0.46773,0.13306 0.91537,-0.0601 0.5214,-0.22499 0.71251,-0.75397 0.18532,-0.51442 -0.0419,-1.04091 z"
         style="font-style:normal;font-variant:normal;font-weight:bold;font-stretch:normal;font-family:'Levenim MT';-inkscape-font-specification:'Levenim MT Bold';letter-spacing:1.20914578px;fill:#000000;stroke-width:0.26458332"
         id="path7147"
         inkscape:connector-curvature="0" />
      <path
         d="m 121.01725,164.17946 1.90097,3.71906 -0.57287,0.47654 -2.26183,-1.54521 1.11822,2.49651 -0.56649,0.47122 -3.31505,-2.54279 0.58778,-0.48893 2.11493,1.62417 -1.10335,-2.46564 0.4962,-0.41276 2.22993,1.52851 -1.21622,-2.37175 z"
         style="font-style:normal;font-variant:normal;font-weight:bold;font-stretch:normal;font-family:'Levenim MT';-inkscape-font-specification:'Levenim MT Bold';letter-spacing:1.20914578px;fill:#000000;stroke-width:0.26458332"
         id="path7149"
         inkscape:connector-curvature="0" />
      <path
         d="m 126.3052,164.27144 -1.45644,1.68131 -3.07995,-2.66802 1.45643,-1.68131 0.5737,0.49697 -0.95222,1.09923 0.55695,0.48246 0.95222,-1.09924 0.56322,0.4879 -0.95221,1.09924 0.81029,0.70191 0.95222,-1.09923 z"
         style="font-style:normal;font-variant:normal;font-weight:bold;font-stretch:normal;font-family:'Levenim MT';-inkscape-font-specification:'Levenim MT Bold';letter-spacing:1.20914578px;fill:#000000;stroke-width:0.26458332"
         id="path7151"
         inkscape:connector-curvature="0" />
      <path
         d="m 127.86342,159.94347 q 0.27607,0.18013 0.42349,0.4814 0.14662,0.29743 0.1068,0.62206 -0.0346,0.31152 -0.30401,0.72447 l -0.62366,0.95582 -3.41265,-2.22671 0.34967,-0.53591 q 0.29972,-0.45935 0.50536,-0.6427 0.27798,-0.24862 0.60797,-0.28799 0.34301,-0.0441 0.64925,0.1557 0.38975,0.25431 0.42333,0.77567 0.67126,-0.41538 1.27445,-0.0218 z m -2.02217,-0.0691 q -0.34799,-0.22706 -0.6356,0.21373 l -0.10899,0.16703 0.71919,0.46926 0.0923,-0.14151 q 0.30426,-0.46631 -0.0669,-0.70851 z m 1.58269,0.69199 q -0.47559,-0.31032 -0.94031,0.40191 l -0.0878,0.13456 0.87463,0.57068 0.10596,-0.1624 q 0.19981,-0.30623 0.2395,-0.48872 0.0609,-0.29103 -0.19198,-0.45603 z"
         style="font-style:normal;font-variant:normal;font-weight:bold;font-stretch:normal;font-family:'Levenim MT';-inkscape-font-specification:'Levenim MT Bold';letter-spacing:1.20914578px;fill:#000000;stroke-width:0.26458332"
         id="path7153"
         inkscape:connector-curvature="0" />
    </g>
  </g>
</svg>
